<?xml version="1.0" standalone="no"?>
<!DOCTYPE svg PUBLIC "-//W3C//DTD SVG 20010904//EN"
 "http://www.w3.org/TR/2001/REC-SVG-20010904/DTD/svg10.dtd">
<svg version="1.0" xmlns="http://www.w3.org/2000/svg"
 width="120.000000pt" height="60.000000pt" viewBox="0 0 120.000000 60.000000"
 preserveAspectRatio="xMidYMid meet">

<g transform="translate(0.000000,60.000000) scale(0.100000,-0.100000)"
fill="#000000" stroke="none">
<path d="M489 403 l-24 -28 28 24 c25 23 32 31 24 31 -2 0 -14 -12 -28 -27z"/>
<path d="M745 383 c-33 -21 -91 -54 -130 -73 -38 -19 -72 -36 -75 -38 -10 -7
43 -42 65 -42 12 0 30 9 39 19 17 18 19 18 47 3 36 -21 36 -35 3 -61 -61 -48
-142 -44 -196 9 l-28 28 -40 -21 c-22 -12 -40 -24 -40 -27 0 -8 197 -120 211
-120 6 0 56 26 110 57 l99 58 0 57 c0 54 -11 75 -23 46 -4 -10 -8 -9 -16 2
-13 18 -13 21 -1 40 9 13 11 13 19 0 16 -23 22 -6 19 50 l-3 51 -60 -38z m-9
-68 c14 -13 14 -17 0 -31 -15 -14 -17 -14 -32 0 -12 13 -13 18 -2 30 16 19 16
19 34 1z"/>
</g>
</svg>
